<svg xmlns="http://www.w3.org/2000/svg" xmlns:xlink="http://www.w3.org/1999/xlink" width="227.108" height="66.712" viewBox="0 0 227.108 66.712"><defs><clipPath id="clip-path"><rect id="Rect&#xE1;ngulo_505" data-name="Rect&#xE1;ngulo 505" width="227.108" height="66.712" fill="none"></rect></clipPath></defs><g id="Grupo_586" data-name="Grupo 586" transform="translate(0 0)"><text id="THINK" transform="translate(75.76 39.549)" fill="#fff" font-size="31" font-family="Raleway-LightItalic, Raleway" font-weight="300" font-style="italic"><tspan x="0" y="0">THINK</tspan></text><text id="_" data-name=" " transform="translate(172.637 38.549)" fill="#fff" font-size="30" font-family="Raleway-SemiBold, Raleway" font-weight="600"><tspan x="0" y="0"> </tspan></text><g id="Grupo_585" data-name="Grupo 585" transform="translate(0 0)"><g id="Grupo_584" data-name="Grupo 584" clip-path="url(#clip-path)"><text id="US" transform="translate(180.987 39.549)" fill="#fff" font-size="31" font-family="Raleway-Medium, Raleway" font-weight="500"><tspan x="0" y="0">US</tspan></text><path id="Trazado_514" data-name="Trazado 514" d="M33.356,0A33.356,33.356,0,1,0,66.712,33.356,33.356,33.356,0,0,0,33.356,0M25.989,16.29a4.776,4.776,0,1,1-4.776,4.777,4.776,4.776,0,0,1,4.776-4.777M52.74,29.034c-.011,3.785-.079,7.575-.034,11.36a15.478,15.478,0,0,1-12.6,13.489l.016-.01a4.849,4.849,0,0,1-.949.182A17.026,17.026,0,0,1,27.2,50.807a14.368,14.368,0,0,1-4.493-5.889,18.917,18.917,0,0,1-1.036-7.361c0-.394,0-.789,0-1.185H19.529c-11.5,0-9.254-9.341-9.254-9.341H27.439a3.576,3.576,0,0,1,3.413,2.538c.007.022.014.043.021.066a3.4,3.4,0,0,1,.091.361,4.173,4.173,0,0,1,.062,1.2v5.178h-.02c0,1.181-.012,1.172.009,2.991A6.223,6.223,0,0,0,37.2,45.158a6.653,6.653,0,0,0,5.845-3.946q.012-2.192.022-4.383.02-4.121.033-8.242l.026-6.825c0-.133,0-.266,0-.4,0,0-.209-5.014,4.787-5.021,4.58-.006,4.845,3.691,4.841,5.024-.006,2.268-.014,5.4-.02,7.668" transform="translate(0 0)" fill="#fff"></path><text id="it_sta_augmentation" data-name="it sta&#xFB00; augmentation" transform="translate(129.251 55.046)" fill="#fff" font-size="8" font-family="Raleway-Light, Raleway" font-weight="300"><tspan x="0" y="0">it st</tspan><tspan y="0">a</tspan><tspan y="0">ﬀ</tspan><tspan y="0" xml:space="preserve"> augme</tspan><tspan y="0">n</tspan><tspan y="0">t</tspan><tspan y="0">a</tspan><tspan y="0">tion</tspan></text></g></g></g></svg>